<svg t="1705559828538" class="icon" viewBox="0 0 1024 1024" version="1.1" xmlns="http://www.w3.org/2000/svg" p-id="34371" width="200" height="200"><path d="M910.583422 0H114.500176C52.012698 0 1.444797 50.748501 1.444797 113.235979v797.528042c0 62.487478 50.748501 113.235979 113.235979 113.235979h796.083245c62.487478 0 113.235979-50.748501 113.235979-113.235979V113.235979C1023.8194 50.748501 973.251499 0 910.583422 0zM129.489947 509.110406l204.258201-210.759789 57.430688 57.430688-153.329101 153.329101 153.329101 153.3291-57.430688 50.929101L129.489947 509.110406z m332.122751 266.745679l-72.962257-23.658554 163.80388-504.053616 72.781658 23.658554-163.623281 504.053616zM691.33545 713.368607L633.904762 662.258907l153.3291-153.329101L633.904762 355.781305l57.430688-57.430688L895.77425 509.110406 691.33545 713.368607z" fill="#3c80f8" p-id="34372"></path></svg>